=============== 127 HOURS 729p BRrip BY HAUNTING SUMMER==========================

Format                           : MPEG-4
Format profile                   : Base Media
Codec ID                         : isom
File size                        : 700 MiB
Duration                         : 1h 33mn
Overall bit rate                 : 1 044 Kbps
Encoded date                     : UTC 2011-02-16 21:43:27
Tagged date                      : UTC 2011-02-16 21:43:27

Video
ID                               : 1
Format                           : AVC
Format/Info                      : Advanced Video Codec
Format profile                   : High@L4.1
Format settings, CABAC           : Yes
Format settings, ReFrames        : 4 frames
Codec ID                         : avc1
Codec ID/Info                    : Advanced Video Coding
Duration                         : 1h 33mn
Bit rate mode                    : Variable
Bit rate                         : 912 Kbps
Maximum bit rate                 : 7 541 Kbps
Width                            : 1 280 pixels
Height                           : 688 pixels
Display aspect ratio             : 1.860
Frame rate mode                  : Constant
Frame rate                       : 23.976 fps
Color space                      : YUV
Chroma subsampling               : 4:2:0
Bit depth                        : 8 bits
Scan type                        : Progressive
Bits/(Pixel*Frame)               : 0.043
Stream size                      : 611 MiB (87%)

Audio
ID                               : 2
Format                           : AAC
Format/Info                      : Advanced Audio Codec
Format version                   : Version 4
Format profile                   : LC
Format settings, SBR             : No
Codec ID                         : 40
Duration                         : 1h 33mn
Bit rate mode                    : Variable
Bit rate                         : 128 Kbps
Maximum bit rate                 : 199 Kbps
Channel(s)                       : 2 channels
Channel positions                : Front: L R
Sampling rate                    : 48.0 KHz
Stream size                      : 85.7 MiB (12%)
Encoded date                     : UTC 2011-02-16 21:46:44
Tagged date                      : UTC 2011-02-16 21:46:55

=================== CASTING ================================

  JAmes Franco  ...  Aron Ralston  
  Kate Mara  ...  Kristi  
  Amber Tamblyn  ...  Megan  
  Sean Bott  ...  Aron's Friend (as Sean A. Bott)  
  Koleman Stinger  ...  Aron Age 5  
  Treat Williams  ...  Aron's Dad  
  John Lawrence  ...  Brian  
  Kate Burton  ...  Aron's Mom  
===================================================================================

======================== SCREEN CAPS===============================================

                  http://bayimg.com/LAjPaAadN

========================== MOVIE INFO =========================================
 
           http://www.imdb.com/title/tt1542344/
===============================================================================


===========  LIFE IS TOO SHORT SO, ENJOY EVERY MOMENT ======================


==============  MORE STUFF HERE =============================================

          http://thepiratebay.org/user/HaUnTiNg.SuMMeR

 